<svg width="461" height="676" viewBox="0 0 461 676" fill="none" xmlns="http://www.w3.org/2000/svg">
<path d="M349.311 590.794C356.627 590.794 362.728 593.146 367.012 597.294C371.299 601.442 373.585 607.218 373.585 613.718C373.585 624.701 367.328 631.318 360.439 634.025L382.945 671.869L385.07 675.446L380.909 675.364L380.148 675.351H363.639L362.973 674.186L341.499 636.628H334.964V659.344H316.403V590.794H349.311ZM19.273 631.083C19.2732 635.083 20.4573 638.211 22.5267 640.328C24.5858 642.437 27.7852 643.815 32.3596 643.815C36.9331 643.815 40.1003 642.437 42.131 640.336C44.1753 638.224 45.3421 635.094 45.3421 631.083V590.811H64.1869V631.449C64.1869 639.87 61.6321 647.215 56.1823 652.449C51.1539 657.276 43.9215 660.048 34.6751 660.441V660.512H32.3596C21.9932 660.512 13.9742 657.658 8.53684 652.435C3.09142 647.204 0.532036 639.883 0.531982 631.555V590.811H19.273V631.083ZM185.96 589.746C201.381 589.746 210.392 598.02 215.312 606.509L216.567 608.673L214.313 609.756L202.348 615.511L200.344 616.474L199.3 614.506C196.918 610.021 191.783 606.443 185.944 606.443C175.422 606.446 167.769 614.261 167.768 625.121C167.768 635.984 175.421 643.799 185.944 643.799C191.801 643.799 196.922 640.295 199.294 635.749L200.323 633.776L202.335 634.729L214.299 640.377L216.594 641.46L215.304 643.646C210.312 652.094 201.405 660.496 185.96 660.496C165.225 660.496 148.832 646.206 148.832 625.121C148.833 604.037 165.225 589.746 185.96 589.746ZM134.054 604.817L133.587 605.434L105.488 642.737H134.731V659.344H80.2927V645.234L80.759 644.617L108.853 607.404H80.2927V590.794H134.054V604.817ZM274.932 592.259L300.135 656.182L301.382 659.344H280.474L279.915 657.835L276.452 648.517H251.619L248.072 657.852L247.505 659.344H226.621L227.874 656.179L253.183 592.257L253.761 590.794H274.354L274.932 592.259ZM423.477 590.781C434.198 590.781 443.464 594.12 450.076 600.17C456.704 606.233 460.497 614.875 460.497 625.107C460.497 635.343 456.704 643.96 450.073 650.004C443.459 656.032 434.195 659.344 423.477 659.344H421.16V659.331H395.371V590.781H423.477ZM413.932 642.737H424.161C429.761 642.593 434.028 640.664 436.921 637.714C439.944 634.636 441.652 630.259 441.652 625.121C441.652 619.939 440.04 615.546 437.087 612.463C434.151 609.401 429.671 607.404 423.477 607.404H413.932V642.737ZM257.191 631.907H270.938L264.068 613.369L257.191 631.907ZM334.964 620.018H347.685C349.84 619.939 351.576 619.279 352.755 618.28C353.969 617.249 354.741 615.745 354.741 613.718C354.741 611.693 353.969 610.187 352.755 609.156C351.499 608.091 349.611 607.404 347.254 607.404H334.964V620.018Z" fill="#001A70" style="fill:#001A70;fill:color(display-p3 0.0000 0.1020 0.4392);fill-opacity:1;"/>
<path d="M367.568 0.553833H447.794C454.477 0.553833 459.956 5.98231 459.956 12.6113V92.4726C408.959 92.4726 367.62 51.3415 367.62 0.658227V0.553833L367.568 0.553833Z" fill="#FF6720" style="fill:#FF6720;fill:color(display-p3 1.0000 0.4039 0.1255);fill-opacity:1;"/>
<path d="M459.904 122.956C391.892 122.956 336.983 68.1488 336.931 0.553833H315.006C308.326 0.553833 302.844 5.98231 302.844 12.6113V289.255C302.844 315.459 299.087 345.524 283.064 367.238C258.165 401.009 203.828 401.009 178.93 367.238C162.905 345.524 159.147 315.459 159.147 289.255V12.0893C159.147 5.72134 153.927 0.553833 147.559 0.553833H13.7265C7.35849 0.553833 2.13879 5.72134 2.13879 12.0893V281.007C2.13879 361.757 21.2429 424.759 59.451 464.898C136.076 545.438 326.022 545.438 402.646 464.898C440.853 424.811 459.959 361.808 459.959 281.007V123.008L459.904 122.956Z" fill="#001A70" style="fill:#001A70;fill:color(display-p3 0.0000 0.1020 0.4392);fill-opacity:1;"/>
</svg>
