<svg height="24" viewBox="0 0 24 24" width="24" xmlns="http://www.w3.org/2000/svg"><g fill="#ffffff" fill-rule="nonzero"><path d="m12 23c6.0751322 0 11-4.9248678 11-11 0-6.07513225-4.9248678-11-11-11-6.07513225 0-11 4.92486775-11 11 0 6.0751322 4.92486775 11 11 11zm0 1c-6.627417 0-12-5.372583-12-12s5.372583-12 12-12 12 5.372583 12 12-5.372583 12-12 12z"/><path d="m11.5 6.5c0-.27614237.2238576-.5.5-.5s.5.22385763.5.5v11c0 .2761424-.2238576.5-.5.5s-.5-.2238576-.5-.5z"/><path d="m6.5 12.5c-.27614237 0-.5-.2238576-.5-.5s.22385763-.5.5-.5h11c.2761424 0 .5.2238576.5.5s-.2238576.5-.5.5z"/></g></svg>