<svg xmlns="http://www.w3.org/2000/svg" width="18.707" height="18.688" viewBox="0 0 18.707 18.688">
  <path id="Login-595b40b75ba036ed117d65b1" d="M10.315,1A9.338,9.338,0,0,0,1.567,7.1a.389.389,0,1,0,.73.268,8.565,8.565,0,1,1,0,5.962.389.389,0,1,0-.73.268A9.339,9.339,0,1,0,10.315,1Zm.353,5.828a.395.395,0,0,0-.243.681L12.87,9.955H1.324a.39.39,0,1,0,.037.779H12.87l-2.446,2.446a.4.4,0,0,0,.56.56L14.1,10.624a.389.389,0,0,0,0-.56L10.984,6.95A.389.389,0,0,0,10.668,6.828Z" transform="translate(-0.952 -1)" fill="#fff"/>
</svg>
